M48
; DRILL file {KiCad (6.0.2-0)} date Wednesday, March 23, 2022 at 11:18:19 AM
; FORMAT={-:-/ absolute / inch / decimal}
; #@! TF.CreationDate,2022-03-23T11:18:19-04:00
; #@! TF.GenerationSoftware,Kicad,Pcbnew,(6.0.2-0)
; #@! TF.FileFunction,Plated,1,2,PTH
FMAT,2
INCH
; #@! TA.AperFunction,Plated,PTH,ViaDrill
T1C0.0157
; #@! TA.AperFunction,Plated,PTH,ComponentDrill
T2C0.0236
; #@! TA.AperFunction,Plated,PTH,ComponentDrill
T3C0.0315
; #@! TA.AperFunction,Plated,PTH,ComponentDrill
T4C0.0320
; #@! TA.AperFunction,Plated,PTH,ComponentDrill
T5C0.0369
; #@! TA.AperFunction,Plated,PTH,ComponentDrill
T6C0.0433
; #@! TA.AperFunction,Plated,PTH,ViaDrill
T7C0.1000
%
G90
G05
T1
X4.345Y-3.642
X4.349Y-3.424
X4.454Y-3.3471
X4.472Y-2.972
X4.4948Y-3.2723
X4.511Y-3.477
X4.608Y-2.995
X4.62Y-3.303
X4.621Y-3.116
X4.656Y-2.942
X4.716Y-3.18
X4.77Y-3.387
X4.823Y-3.152
X4.828Y-2.993
X4.864Y-3.074
X4.8705Y-2.928
X4.886Y-3.762
X4.891Y-3.684
X5.057Y-3.008
X5.071Y-2.891
X5.077Y-3.169
X5.111Y-3.312
X5.124Y-3.448
X5.172Y-3.769
X5.235Y-2.885
X5.389Y-3.658
X5.392Y-2.884
X5.42Y-3.045
X5.423Y-3.367
X5.504Y-2.882
X5.541Y-3.225
X5.547Y-3.743
X5.554Y-3.48
X5.587Y-3.581
X5.711Y-3.636
X5.735Y-2.863
X5.742Y-3.781
X5.762Y-2.913
X5.86Y-3.495
X5.893Y-3.747
X5.921Y-3.21
X5.93Y-3.827
X6.074Y-2.833
X6.089Y-3.425
X6.099Y-3.527
X6.1Y-3.046
T2
X5.8781Y-2.928
X6.0199Y-2.928
T6
X4.5108Y-3.6029
X4.7108Y-3.6029
T7
X4.339Y-2.854
X6.048Y-3.752
T3
G00X5.9669Y-3.108
M15
G01X5.8634Y-3.108
M16
G05
T4
G00X6.0333Y-3.3518
M15
G01X6.0333Y-3.2342
M16
G05
T5
G00X5.7892Y-3.3592
M15
G01X5.7892Y-3.2268
M16
G05
T0
M30
