%TF.GenerationSoftware,KiCad,Pcbnew,(6.0.2-0)*%
%TF.CreationDate,2022-03-21T13:39:47-04:00*%
%TF.ProjectId,Snoopy,536e6f6f-7079-42e6-9b69-6361645f7063,v03*%
%TF.SameCoordinates,Original*%
%TF.FileFunction,Legend,Top*%
%TF.FilePolarity,Positive*%
%FSLAX46Y46*%
G04 Gerber Fmt 4.6, Leading zero omitted, Abs format (unit mm)*
G04 Created by KiCad (PCBNEW (6.0.2-0)) date 2022-03-21 13:39:47*
%MOMM*%
%LPD*%
G01*
G04 APERTURE LIST*
%ADD10C,0.150000*%
%ADD11C,0.127000*%
%ADD12C,0.120000*%
%ADD13C,0.250000*%
%ADD14C,0.249999*%
G04 APERTURE END LIST*
D10*
%TO.C,U3*%
X123538580Y-90471904D02*
X124348104Y-90471904D01*
X124443342Y-90424285D01*
X124490961Y-90376666D01*
X124538580Y-90281428D01*
X124538580Y-90090952D01*
X124490961Y-89995714D01*
X124443342Y-89948095D01*
X124348104Y-89900476D01*
X123538580Y-89900476D01*
X123538580Y-89519523D02*
X123538580Y-88900476D01*
X123919533Y-89233809D01*
X123919533Y-89090952D01*
X123967152Y-88995714D01*
X124014771Y-88948095D01*
X124110009Y-88900476D01*
X124348104Y-88900476D01*
X124443342Y-88948095D01*
X124490961Y-88995714D01*
X124538580Y-89090952D01*
X124538580Y-89376666D01*
X124490961Y-89471904D01*
X124443342Y-89519523D01*
%TO.C,J2*%
X159807423Y-88544580D02*
X159807423Y-89258866D01*
X159759804Y-89401723D01*
X159664566Y-89496961D01*
X159521709Y-89544580D01*
X159426471Y-89544580D01*
X160235995Y-88639819D02*
X160283614Y-88592200D01*
X160378852Y-88544580D01*
X160616947Y-88544580D01*
X160712185Y-88592200D01*
X160759804Y-88639819D01*
X160807423Y-88735057D01*
X160807423Y-88830295D01*
X160759804Y-88973152D01*
X160188376Y-89544580D01*
X160807423Y-89544580D01*
X146982542Y-84216723D02*
X146982542Y-82946723D01*
X147708257Y-84216723D02*
X147163971Y-83491009D01*
X147708257Y-82946723D02*
X146982542Y-83672438D01*
X148857304Y-84216723D02*
X148252542Y-84216723D01*
X148252542Y-82946723D01*
X149280638Y-84216723D02*
X149280638Y-82946723D01*
X149583019Y-82946723D01*
X149764447Y-83007200D01*
X149885400Y-83128152D01*
X149945876Y-83249104D01*
X150006352Y-83491009D01*
X150006352Y-83672438D01*
X149945876Y-83914342D01*
X149885400Y-84035295D01*
X149764447Y-84156247D01*
X149583019Y-84216723D01*
X149280638Y-84216723D01*
X150429685Y-82946723D02*
X151276352Y-84216723D01*
X151276352Y-82946723D02*
X150429685Y-84216723D01*
X151760161Y-83732914D02*
X152727780Y-83732914D01*
X153574447Y-82946723D02*
X153695400Y-82946723D01*
X153816352Y-83007200D01*
X153876828Y-83067676D01*
X153937304Y-83188628D01*
X153997780Y-83430533D01*
X153997780Y-83732914D01*
X153937304Y-83974819D01*
X153876828Y-84095771D01*
X153816352Y-84156247D01*
X153695400Y-84216723D01*
X153574447Y-84216723D01*
X153453495Y-84156247D01*
X153393019Y-84095771D01*
X153332542Y-83974819D01*
X153272066Y-83732914D01*
X153272066Y-83430533D01*
X153332542Y-83188628D01*
X153393019Y-83067676D01*
X153453495Y-83007200D01*
X153574447Y-82946723D01*
X154481590Y-83067676D02*
X154542066Y-83007200D01*
X154663019Y-82946723D01*
X154965400Y-82946723D01*
X155086352Y-83007200D01*
X155146828Y-83067676D01*
X155207304Y-83188628D01*
X155207304Y-83309580D01*
X155146828Y-83491009D01*
X154421114Y-84216723D01*
X155207304Y-84216723D01*
X155993495Y-82946723D02*
X156114447Y-82946723D01*
X156235400Y-83007200D01*
X156295876Y-83067676D01*
X156356352Y-83188628D01*
X156416828Y-83430533D01*
X156416828Y-83732914D01*
X156356352Y-83974819D01*
X156295876Y-84095771D01*
X156235400Y-84156247D01*
X156114447Y-84216723D01*
X155993495Y-84216723D01*
X155872542Y-84156247D01*
X155812066Y-84095771D01*
X155751590Y-83974819D01*
X155691114Y-83732914D01*
X155691114Y-83430533D01*
X155751590Y-83188628D01*
X155812066Y-83067676D01*
X155872542Y-83007200D01*
X155993495Y-82946723D01*
X156900638Y-83067676D02*
X156961114Y-83007200D01*
X157082066Y-82946723D01*
X157384447Y-82946723D01*
X157505400Y-83007200D01*
X157565876Y-83067676D01*
X157626352Y-83188628D01*
X157626352Y-83309580D01*
X157565876Y-83491009D01*
X156840161Y-84216723D01*
X157626352Y-84216723D01*
X158170638Y-83732914D02*
X159138257Y-83732914D01*
X160166352Y-83551485D02*
X160347780Y-83611961D01*
X160408257Y-83672438D01*
X160468733Y-83793390D01*
X160468733Y-83974819D01*
X160408257Y-84095771D01*
X160347780Y-84156247D01*
X160226828Y-84216723D01*
X159743019Y-84216723D01*
X159743019Y-82946723D01*
X160166352Y-82946723D01*
X160287304Y-83007200D01*
X160347780Y-83067676D01*
X160408257Y-83188628D01*
X160408257Y-83309580D01*
X160347780Y-83430533D01*
X160287304Y-83491009D01*
X160166352Y-83551485D01*
X159743019Y-83551485D01*
%TO.C,J1*%
X116781066Y-85505780D02*
X116781066Y-86220066D01*
X116733447Y-86362923D01*
X116638209Y-86458161D01*
X116495352Y-86505780D01*
X116400114Y-86505780D01*
X117781066Y-86505780D02*
X117209638Y-86505780D01*
X117495352Y-86505780D02*
X117495352Y-85505780D01*
X117400114Y-85648638D01*
X117304876Y-85743876D01*
X117209638Y-85791495D01*
%TO.C,R3*%
X121755233Y-81318380D02*
X121421900Y-80842190D01*
X121183804Y-81318380D02*
X121183804Y-80318380D01*
X121564757Y-80318380D01*
X121659995Y-80366000D01*
X121707614Y-80413619D01*
X121755233Y-80508857D01*
X121755233Y-80651714D01*
X121707614Y-80746952D01*
X121659995Y-80794571D01*
X121564757Y-80842190D01*
X121183804Y-80842190D01*
X122088566Y-80318380D02*
X122707614Y-80318380D01*
X122374280Y-80699333D01*
X122517138Y-80699333D01*
X122612376Y-80746952D01*
X122659995Y-80794571D01*
X122707614Y-80889809D01*
X122707614Y-81127904D01*
X122659995Y-81223142D01*
X122612376Y-81270761D01*
X122517138Y-81318380D01*
X122231423Y-81318380D01*
X122136185Y-81270761D01*
X122088566Y-81223142D01*
%TO.C,R1*%
X125487133Y-94965780D02*
X125153800Y-94489590D01*
X124915704Y-94965780D02*
X124915704Y-93965780D01*
X125296657Y-93965780D01*
X125391895Y-94013400D01*
X125439514Y-94061019D01*
X125487133Y-94156257D01*
X125487133Y-94299114D01*
X125439514Y-94394352D01*
X125391895Y-94441971D01*
X125296657Y-94489590D01*
X124915704Y-94489590D01*
X126439514Y-94965780D02*
X125868085Y-94965780D01*
X126153800Y-94965780D02*
X126153800Y-93965780D01*
X126058561Y-94108638D01*
X125963323Y-94203876D01*
X125868085Y-94251495D01*
%TO.C,U1*%
X117373495Y-71745180D02*
X117373495Y-72554704D01*
X117421114Y-72649942D01*
X117468733Y-72697561D01*
X117563971Y-72745180D01*
X117754447Y-72745180D01*
X117849685Y-72697561D01*
X117897304Y-72649942D01*
X117944923Y-72554704D01*
X117944923Y-71745180D01*
X118944923Y-72745180D02*
X118373495Y-72745180D01*
X118659209Y-72745180D02*
X118659209Y-71745180D01*
X118563971Y-71888038D01*
X118468733Y-71983276D01*
X118373495Y-72030895D01*
%TO.C,C1*%
X141929142Y-95315066D02*
X141976761Y-95362685D01*
X142024380Y-95505542D01*
X142024380Y-95600780D01*
X141976761Y-95743638D01*
X141881523Y-95838876D01*
X141786285Y-95886495D01*
X141595809Y-95934114D01*
X141452952Y-95934114D01*
X141262476Y-95886495D01*
X141167238Y-95838876D01*
X141072000Y-95743638D01*
X141024380Y-95600780D01*
X141024380Y-95505542D01*
X141072000Y-95362685D01*
X141119619Y-95315066D01*
X142024380Y-94362685D02*
X142024380Y-94934114D01*
X142024380Y-94648400D02*
X141024380Y-94648400D01*
X141167238Y-94743638D01*
X141262476Y-94838876D01*
X141310095Y-94934114D01*
%TO.C,U2*%
X147751895Y-94409980D02*
X147751895Y-95219504D01*
X147799514Y-95314742D01*
X147847133Y-95362361D01*
X147942371Y-95409980D01*
X148132847Y-95409980D01*
X148228085Y-95362361D01*
X148275704Y-95314742D01*
X148323323Y-95219504D01*
X148323323Y-94409980D01*
X148751895Y-94505219D02*
X148799514Y-94457600D01*
X148894752Y-94409980D01*
X149132847Y-94409980D01*
X149228085Y-94457600D01*
X149275704Y-94505219D01*
X149323323Y-94600457D01*
X149323323Y-94695695D01*
X149275704Y-94838552D01*
X148704276Y-95409980D01*
X149323323Y-95409980D01*
%TO.C,J3*%
X111542580Y-81450376D02*
X112256866Y-81450376D01*
X112399723Y-81497995D01*
X112494961Y-81593233D01*
X112542580Y-81736090D01*
X112542580Y-81831328D01*
X111542580Y-81069423D02*
X111542580Y-80450376D01*
X111923533Y-80783709D01*
X111923533Y-80640852D01*
X111971152Y-80545614D01*
X112018771Y-80497995D01*
X112114009Y-80450376D01*
X112352104Y-80450376D01*
X112447342Y-80497995D01*
X112494961Y-80545614D01*
X112542580Y-80640852D01*
X112542580Y-80926566D01*
X112494961Y-81021804D01*
X112447342Y-81069423D01*
D11*
X109322809Y-90813466D02*
X109322809Y-91055371D01*
X109564714Y-91079561D01*
X109540523Y-91055371D01*
X109516333Y-91006990D01*
X109516333Y-90886038D01*
X109540523Y-90837657D01*
X109564714Y-90813466D01*
X109613095Y-90789276D01*
X109734047Y-90789276D01*
X109782428Y-90813466D01*
X109806619Y-90837657D01*
X109830809Y-90886038D01*
X109830809Y-91006990D01*
X109806619Y-91055371D01*
X109782428Y-91079561D01*
X109322809Y-90474800D02*
X109322809Y-90426419D01*
X109347000Y-90378038D01*
X109371190Y-90353847D01*
X109419571Y-90329657D01*
X109516333Y-90305466D01*
X109637285Y-90305466D01*
X109734047Y-90329657D01*
X109782428Y-90353847D01*
X109806619Y-90378038D01*
X109830809Y-90426419D01*
X109830809Y-90474800D01*
X109806619Y-90523180D01*
X109782428Y-90547371D01*
X109734047Y-90571561D01*
X109637285Y-90595752D01*
X109516333Y-90595752D01*
X109419571Y-90571561D01*
X109371190Y-90547371D01*
X109347000Y-90523180D01*
X109322809Y-90474800D01*
X109830809Y-89821657D02*
X109830809Y-90111942D01*
X109830809Y-89966800D02*
X109322809Y-89966800D01*
X109395380Y-90015180D01*
X109443761Y-90063561D01*
X109467952Y-90111942D01*
X109492142Y-89386228D02*
X109830809Y-89386228D01*
X109298619Y-89507180D02*
X109661476Y-89628133D01*
X109661476Y-89313657D01*
X109322809Y-88902419D02*
X109322809Y-88999180D01*
X109347000Y-89047561D01*
X109371190Y-89071752D01*
X109443761Y-89120133D01*
X109540523Y-89144323D01*
X109734047Y-89144323D01*
X109782428Y-89120133D01*
X109806619Y-89095942D01*
X109830809Y-89047561D01*
X109830809Y-88950800D01*
X109806619Y-88902419D01*
X109782428Y-88878228D01*
X109734047Y-88854038D01*
X109613095Y-88854038D01*
X109564714Y-88878228D01*
X109540523Y-88902419D01*
X109516333Y-88950800D01*
X109516333Y-89047561D01*
X109540523Y-89095942D01*
X109564714Y-89120133D01*
X109613095Y-89144323D01*
X109830809Y-88370228D02*
X109830809Y-88660514D01*
X109830809Y-88515371D02*
X109322809Y-88515371D01*
X109395380Y-88563752D01*
X109443761Y-88612133D01*
X109467952Y-88660514D01*
X109637285Y-88152514D02*
X109637285Y-87765466D01*
X109322809Y-87426800D02*
X109322809Y-87378419D01*
X109347000Y-87330038D01*
X109371190Y-87305847D01*
X109419571Y-87281657D01*
X109516333Y-87257466D01*
X109637285Y-87257466D01*
X109734047Y-87281657D01*
X109782428Y-87305847D01*
X109806619Y-87330038D01*
X109830809Y-87378419D01*
X109830809Y-87426800D01*
X109806619Y-87475180D01*
X109782428Y-87499371D01*
X109734047Y-87523561D01*
X109637285Y-87547752D01*
X109516333Y-87547752D01*
X109419571Y-87523561D01*
X109371190Y-87499371D01*
X109347000Y-87475180D01*
X109322809Y-87426800D01*
X109492142Y-86822038D02*
X109830809Y-86822038D01*
X109298619Y-86942990D02*
X109661476Y-87063942D01*
X109661476Y-86749466D01*
X109830809Y-86531752D02*
X109830809Y-86434990D01*
X109806619Y-86386609D01*
X109782428Y-86362419D01*
X109709857Y-86314038D01*
X109613095Y-86289847D01*
X109419571Y-86289847D01*
X109371190Y-86314038D01*
X109347000Y-86338228D01*
X109322809Y-86386609D01*
X109322809Y-86483371D01*
X109347000Y-86531752D01*
X109371190Y-86555942D01*
X109419571Y-86580133D01*
X109540523Y-86580133D01*
X109588904Y-86555942D01*
X109613095Y-86531752D01*
X109637285Y-86483371D01*
X109637285Y-86386609D01*
X109613095Y-86338228D01*
X109588904Y-86314038D01*
X109540523Y-86289847D01*
X109830809Y-85806038D02*
X109830809Y-86096323D01*
X109830809Y-85951180D02*
X109322809Y-85951180D01*
X109395380Y-85999561D01*
X109443761Y-86047942D01*
X109467952Y-86096323D01*
D10*
%TO.C,J4*%
X150771266Y-71823580D02*
X150771266Y-72537866D01*
X150723647Y-72680723D01*
X150628409Y-72775961D01*
X150485552Y-72823580D01*
X150390314Y-72823580D01*
X151676028Y-72156914D02*
X151676028Y-72823580D01*
X151437933Y-71775961D02*
X151199838Y-72490247D01*
X151818885Y-72490247D01*
%TO.C,C2*%
X137433342Y-95365866D02*
X137480961Y-95413485D01*
X137528580Y-95556342D01*
X137528580Y-95651580D01*
X137480961Y-95794438D01*
X137385723Y-95889676D01*
X137290485Y-95937295D01*
X137100009Y-95984914D01*
X136957152Y-95984914D01*
X136766676Y-95937295D01*
X136671438Y-95889676D01*
X136576200Y-95794438D01*
X136528580Y-95651580D01*
X136528580Y-95556342D01*
X136576200Y-95413485D01*
X136623819Y-95365866D01*
X136623819Y-94984914D02*
X136576200Y-94937295D01*
X136528580Y-94842057D01*
X136528580Y-94603961D01*
X136576200Y-94508723D01*
X136623819Y-94461104D01*
X136719057Y-94413485D01*
X136814295Y-94413485D01*
X136957152Y-94461104D01*
X137528580Y-95032533D01*
X137528580Y-94413485D01*
%TO.C,R4*%
X131227533Y-94940380D02*
X130894200Y-94464190D01*
X130656104Y-94940380D02*
X130656104Y-93940380D01*
X131037057Y-93940380D01*
X131132295Y-93988000D01*
X131179914Y-94035619D01*
X131227533Y-94130857D01*
X131227533Y-94273714D01*
X131179914Y-94368952D01*
X131132295Y-94416571D01*
X131037057Y-94464190D01*
X130656104Y-94464190D01*
X132084676Y-94273714D02*
X132084676Y-94940380D01*
X131846580Y-93892761D02*
X131608485Y-94607047D01*
X132227533Y-94607047D01*
%TO.C,R2*%
X115710033Y-81267580D02*
X115376700Y-80791390D01*
X115138604Y-81267580D02*
X115138604Y-80267580D01*
X115519557Y-80267580D01*
X115614795Y-80315200D01*
X115662414Y-80362819D01*
X115710033Y-80458057D01*
X115710033Y-80600914D01*
X115662414Y-80696152D01*
X115614795Y-80743771D01*
X115519557Y-80791390D01*
X115138604Y-80791390D01*
X116090985Y-80362819D02*
X116138604Y-80315200D01*
X116233842Y-80267580D01*
X116471938Y-80267580D01*
X116567176Y-80315200D01*
X116614795Y-80362819D01*
X116662414Y-80458057D01*
X116662414Y-80553295D01*
X116614795Y-80696152D01*
X116043366Y-81267580D01*
X116662414Y-81267580D01*
D12*
%TO.C,U3*%
X143816200Y-90380000D02*
X143816200Y-91160000D01*
X125576200Y-65415000D02*
X125576200Y-71835000D01*
X143816200Y-65415000D02*
X143816200Y-71835000D01*
X125576200Y-65415000D02*
X143816200Y-65415000D01*
X125576200Y-71835000D02*
X125196200Y-71835000D01*
X125576200Y-91160000D02*
X126576200Y-91160000D01*
X143816200Y-91160000D02*
X142816200Y-91160000D01*
X125576200Y-90380000D02*
X125576200Y-91160000D01*
D10*
%TO.C,J2*%
X147670400Y-78992200D02*
X146295400Y-78992200D01*
X161095400Y-78992200D02*
X152820400Y-78992200D01*
X161095400Y-78992200D02*
X161095400Y-88292200D01*
X161095400Y-88292200D02*
X146295400Y-88292200D01*
X146295400Y-86467199D02*
X146295400Y-88292200D01*
X146295400Y-78992200D02*
X146295400Y-80817201D01*
D13*
X145895400Y-83642200D02*
G75*
G03*
X145895400Y-83642200I-125000J0D01*
G01*
D12*
%TO.C,J1*%
X120739400Y-90603400D02*
X120679400Y-90662400D01*
X118404400Y-87113400D02*
X120904400Y-87113400D01*
X111734400Y-95863400D02*
X112234400Y-95863400D01*
X118404400Y-87113400D02*
X118404400Y-88113400D01*
X122254400Y-87053400D02*
X122254400Y-95623400D01*
X111974400Y-95623400D02*
X122254400Y-95623400D01*
X118404400Y-88113400D02*
X120904400Y-88113400D01*
X111974400Y-87053400D02*
X122254400Y-87053400D01*
X113324400Y-88113400D02*
X115824400Y-88113400D01*
X118784400Y-92558400D02*
X118744400Y-92598400D01*
X115824400Y-87113400D02*
X115824400Y-88113400D01*
X113324400Y-87113400D02*
X113324400Y-88113400D01*
X113324400Y-87113400D02*
X115824400Y-87113400D01*
X111974400Y-87053400D02*
X111974400Y-95623400D01*
X120565400Y-90428400D02*
X120525400Y-90468400D01*
X111734400Y-95123400D02*
X111734400Y-95863400D01*
X111974400Y-88963400D02*
X122254400Y-88963400D01*
X118630400Y-92363400D02*
X118570400Y-92423400D01*
X111974400Y-93963400D02*
X122254400Y-93963400D01*
X120904400Y-87113400D02*
X120904400Y-88113400D01*
X111974400Y-95063400D02*
X122254400Y-95063400D01*
X113288400Y-90885400D02*
G75*
G03*
X113287789Y-92140146I1285999J-627999D01*
G01*
X114574400Y-92943400D02*
G75*
G03*
X115201271Y-92798675I-1J1430001D01*
G01*
X113946400Y-92799400D02*
G75*
G03*
X114598680Y-92944340I628002J1286011D01*
G01*
X115201400Y-90227400D02*
G75*
G03*
X113947038Y-90227577I-627000J-1286006D01*
G01*
X115860400Y-92140400D02*
G75*
G03*
X115860223Y-90886038I-1286006J627000D01*
G01*
X121084400Y-91513400D02*
G75*
G03*
X121084400Y-91513400I-1430000J0D01*
G01*
%TO.C,R3*%
X121667176Y-82818500D02*
X122176624Y-82818500D01*
X121667176Y-81773500D02*
X122176624Y-81773500D01*
%TO.C,R1*%
X128118776Y-93990900D02*
X128628224Y-93990900D01*
X128118776Y-95035900D02*
X128628224Y-95035900D01*
%TO.C,U1*%
X118135400Y-73007800D02*
X114535400Y-73007800D01*
X118135400Y-73007800D02*
X120335400Y-73007800D01*
X118135400Y-78477800D02*
X120335400Y-78477800D01*
X118135400Y-78477800D02*
X115935400Y-78477800D01*
%TO.C,C1*%
X143512000Y-95294667D02*
X143512000Y-95002133D01*
X142492000Y-95294667D02*
X142492000Y-95002133D01*
%TO.C,U2*%
X148513800Y-90997600D02*
X149313800Y-90997600D01*
X148513800Y-94117600D02*
X147713800Y-94117600D01*
X148513800Y-94117600D02*
X150313800Y-94117600D01*
X148513800Y-90997600D02*
X147713800Y-90997600D01*
D10*
%TO.C,J3*%
X110707967Y-85016000D02*
X110907901Y-85166002D01*
X107908199Y-81816001D02*
X108651299Y-81816001D01*
X110907916Y-81816001D02*
X110907916Y-81966001D01*
X110444699Y-85316002D02*
X110907916Y-85316002D01*
X110907916Y-81966001D02*
X110707967Y-82116000D01*
X107908199Y-81816001D02*
X107908199Y-85315996D01*
X110907916Y-85166002D02*
X110907916Y-85316002D01*
X110444699Y-81816001D02*
X110907916Y-81816001D01*
X107908196Y-85315999D02*
X108651299Y-85315999D01*
X110707967Y-82116000D02*
X110707967Y-82266000D01*
X110707967Y-84866000D02*
X110707967Y-85016000D01*
D14*
X112183202Y-82765999D02*
G75*
G03*
X112183202Y-82765999I-125001J0D01*
G01*
D12*
%TO.C,C2*%
X137996200Y-95345467D02*
X137996200Y-95052933D01*
X139016200Y-95345467D02*
X139016200Y-95052933D01*
%TO.C,R4*%
X134415624Y-95010500D02*
X133906176Y-95010500D01*
X134415624Y-93965500D02*
X133906176Y-93965500D01*
%TO.C,R2*%
X115621976Y-81722700D02*
X116131424Y-81722700D01*
X115621976Y-82767700D02*
X116131424Y-82767700D01*
%TD*%
M02*
