%TF.GenerationSoftware,KiCad,Pcbnew,(6.0.2-0)*%
%TF.CreationDate,2022-03-21T13:29:43-04:00*%
%TF.ProjectId,chip-hardware,63686970-2d68-4617-9264-776172652e6b,v02*%
%TF.SameCoordinates,Original*%
%TF.FileFunction,Paste,Top*%
%TF.FilePolarity,Positive*%
%FSLAX46Y46*%
G04 Gerber Fmt 4.6, Leading zero omitted, Abs format (unit mm)*
G04 Created by KiCad (PCBNEW (6.0.2-0)) date 2022-03-21 13:29:43*
%MOMM*%
%LPD*%
G01*
G04 APERTURE LIST*
G04 Aperture macros list*
%AMRoundRect*
0 Rectangle with rounded corners*
0 $1 Rounding radius*
0 $2 $3 $4 $5 $6 $7 $8 $9 X,Y pos of 4 corners*
0 Add a 4 corners polygon primitive as box body*
4,1,4,$2,$3,$4,$5,$6,$7,$8,$9,$2,$3,0*
0 Add four circle primitives for the rounded corners*
1,1,$1+$1,$2,$3*
1,1,$1+$1,$4,$5*
1,1,$1+$1,$6,$7*
1,1,$1+$1,$8,$9*
0 Add four rect primitives between the rounded corners*
20,1,$1+$1,$2,$3,$4,$5,0*
20,1,$1+$1,$4,$5,$6,$7,0*
20,1,$1+$1,$6,$7,$8,$9,0*
20,1,$1+$1,$8,$9,$2,$3,0*%
G04 Aperture macros list end*
%ADD10RoundRect,0.237500X-0.250000X-0.237500X0.250000X-0.237500X0.250000X0.237500X-0.250000X0.237500X0*%
%ADD11RoundRect,0.237500X0.250000X0.237500X-0.250000X0.237500X-0.250000X-0.237500X0.250000X-0.237500X0*%
%ADD12R,0.900000X2.000000*%
%ADD13R,2.000000X0.900000*%
%ADD14R,5.000000X5.000000*%
%ADD15RoundRect,0.100000X0.637500X0.100000X-0.637500X0.100000X-0.637500X-0.100000X0.637500X-0.100000X0*%
%ADD16RoundRect,0.150000X0.150000X-0.512500X0.150000X0.512500X-0.150000X0.512500X-0.150000X-0.512500X0*%
%ADD17RoundRect,0.237500X-0.237500X0.250000X-0.237500X-0.250000X0.237500X-0.250000X0.237500X0.250000X0*%
%ADD18RoundRect,0.237500X0.300000X0.237500X-0.300000X0.237500X-0.300000X-0.237500X0.300000X-0.237500X0*%
%ADD19RoundRect,0.237500X0.237500X-0.250000X0.237500X0.250000X-0.237500X0.250000X-0.237500X-0.250000X0*%
%ADD20RoundRect,0.062500X-0.212500X-0.062500X0.212500X-0.062500X0.212500X0.062500X-0.212500X0.062500X0*%
%ADD21RoundRect,0.062500X-0.062500X-0.212500X0.062500X-0.212500X0.062500X0.212500X-0.062500X0.212500X0*%
%ADD22RoundRect,0.237500X-0.237500X0.300000X-0.237500X-0.300000X0.237500X-0.300000X0.237500X0.300000X0*%
G04 APERTURE END LIST*
D10*
%TO.C,R3*%
X174017300Y-110236000D03*
X175842300Y-110236000D03*
%TD*%
D11*
%TO.C,R12*%
X158750000Y-91262200D03*
X156925000Y-91262200D03*
%TD*%
D10*
%TO.C,R6*%
X157953900Y-102031800D03*
X159778900Y-102031800D03*
%TD*%
D12*
%TO.C,U5*%
X120123600Y-109871400D03*
X121393600Y-109871400D03*
X122663600Y-109871400D03*
X123933600Y-109871400D03*
X125203600Y-109871400D03*
X126473600Y-109871400D03*
X127743600Y-109871400D03*
X129013600Y-109871400D03*
X130283600Y-109871400D03*
X131553600Y-109871400D03*
X132823600Y-109871400D03*
X134093600Y-109871400D03*
X135363600Y-109871400D03*
X136633600Y-109871400D03*
D13*
X137633600Y-107086400D03*
X137633600Y-105816400D03*
X137633600Y-104546400D03*
X137633600Y-103276400D03*
X137633600Y-102006400D03*
X137633600Y-100736400D03*
X137633600Y-99466400D03*
X137633600Y-98196400D03*
X137633600Y-96926400D03*
X137633600Y-95656400D03*
D12*
X136633600Y-92871400D03*
X135363600Y-92871400D03*
X134093600Y-92871400D03*
X132823600Y-92871400D03*
X131553600Y-92871400D03*
X130283600Y-92871400D03*
X129013600Y-92871400D03*
X127743600Y-92871400D03*
X126473600Y-92871400D03*
X125203600Y-92871400D03*
X123933600Y-92871400D03*
X122663600Y-92871400D03*
X121393600Y-92871400D03*
X120123600Y-92871400D03*
D14*
X127623600Y-102371400D03*
%TD*%
D15*
%TO.C,U3*%
X153789300Y-95670800D03*
X153789300Y-95020800D03*
X153789300Y-94370800D03*
X153789300Y-93720800D03*
X153789300Y-93070800D03*
X153789300Y-92420800D03*
X153789300Y-91770800D03*
X153789300Y-91120800D03*
X148064300Y-91120800D03*
X148064300Y-91770800D03*
X148064300Y-92420800D03*
X148064300Y-93070800D03*
X148064300Y-93720800D03*
X148064300Y-94370800D03*
X148064300Y-95020800D03*
X148064300Y-95670800D03*
%TD*%
D16*
%TO.C,U1*%
X162549800Y-93415700D03*
X163499800Y-93415700D03*
X164449800Y-93415700D03*
X164449800Y-91140700D03*
X162549800Y-91140700D03*
%TD*%
D11*
%TO.C,R2*%
X171446200Y-110261400D03*
X169621200Y-110261400D03*
%TD*%
D10*
%TO.C,R5*%
X156872300Y-94411800D03*
X158697300Y-94411800D03*
%TD*%
D17*
%TO.C,R4*%
X163578000Y-102008300D03*
X163578000Y-103833300D03*
%TD*%
D18*
%TO.C,C1*%
X165886300Y-99669600D03*
X164161300Y-99669600D03*
%TD*%
D19*
%TO.C,R9*%
X142570200Y-100783400D03*
X142570200Y-98958400D03*
%TD*%
D11*
%TO.C,R7*%
X158697300Y-96494600D03*
X156872300Y-96494600D03*
%TD*%
D10*
%TO.C,R11*%
X163361900Y-110921800D03*
X165186900Y-110921800D03*
%TD*%
D19*
%TO.C,R8*%
X142570200Y-92555700D03*
X142570200Y-90730700D03*
%TD*%
D17*
%TO.C,R10*%
X142570200Y-94896300D03*
X142570200Y-96721300D03*
%TD*%
D20*
%TO.C,U2*%
X166948409Y-103114602D03*
X166948409Y-103614601D03*
X166948409Y-104114600D03*
X166948409Y-104614599D03*
X166948409Y-105114598D03*
D21*
X167673401Y-105339591D03*
X168173400Y-105339591D03*
X168673399Y-105339591D03*
D20*
X169398391Y-105114598D03*
X169398391Y-104614599D03*
X169398391Y-104114600D03*
X169398391Y-103614601D03*
X169398391Y-103114602D03*
D21*
X168673399Y-102889609D03*
X168173400Y-102889609D03*
X167673401Y-102889609D03*
%TD*%
D10*
%TO.C,R1*%
X158499900Y-110921800D03*
X160324900Y-110921800D03*
%TD*%
D22*
%TO.C,C2*%
X161444400Y-105869400D03*
X161444400Y-107594400D03*
%TD*%
M02*
