%TF.GenerationSoftware,KiCad,Pcbnew,(6.0.2-0)*%
%TF.CreationDate,2022-03-23T11:12:32-04:00*%
%TF.ProjectId,chip-hardware,63686970-2d68-4617-9264-776172652e6b,v02*%
%TF.SameCoordinates,Original*%
%TF.FileFunction,Legend,Top*%
%TF.FilePolarity,Positive*%
%FSLAX46Y46*%
G04 Gerber Fmt 4.6, Leading zero omitted, Abs format (unit mm)*
G04 Created by KiCad (PCBNEW (6.0.2-0)) date 2022-03-23 11:12:32*
%MOMM*%
%LPD*%
G01*
G04 APERTURE LIST*
%ADD10C,0.150000*%
%ADD11C,0.120000*%
%ADD12C,0.250000*%
G04 APERTURE END LIST*
D10*
%TO.C,R3*%
X174763133Y-109258380D02*
X174429800Y-108782190D01*
X174191704Y-109258380D02*
X174191704Y-108258380D01*
X174572657Y-108258380D01*
X174667895Y-108306000D01*
X174715514Y-108353619D01*
X174763133Y-108448857D01*
X174763133Y-108591714D01*
X174715514Y-108686952D01*
X174667895Y-108734571D01*
X174572657Y-108782190D01*
X174191704Y-108782190D01*
X175096466Y-108258380D02*
X175715514Y-108258380D01*
X175382180Y-108639333D01*
X175525038Y-108639333D01*
X175620276Y-108686952D01*
X175667895Y-108734571D01*
X175715514Y-108829809D01*
X175715514Y-109067904D01*
X175667895Y-109163142D01*
X175620276Y-109210761D01*
X175525038Y-109258380D01*
X175239323Y-109258380D01*
X175144085Y-109210761D01*
X175096466Y-109163142D01*
%TO.C,R12*%
X155951180Y-92006657D02*
X155474990Y-92339990D01*
X155951180Y-92578085D02*
X154951180Y-92578085D01*
X154951180Y-92197133D01*
X154998800Y-92101895D01*
X155046419Y-92054276D01*
X155141657Y-92006657D01*
X155284514Y-92006657D01*
X155379752Y-92054276D01*
X155427371Y-92101895D01*
X155474990Y-92197133D01*
X155474990Y-92578085D01*
X155951180Y-91054276D02*
X155951180Y-91625704D01*
X155951180Y-91339990D02*
X154951180Y-91339990D01*
X155094038Y-91435228D01*
X155189276Y-91530466D01*
X155236895Y-91625704D01*
X155046419Y-90673323D02*
X154998800Y-90625704D01*
X154951180Y-90530466D01*
X154951180Y-90292371D01*
X154998800Y-90197133D01*
X155046419Y-90149514D01*
X155141657Y-90101895D01*
X155236895Y-90101895D01*
X155379752Y-90149514D01*
X155951180Y-90720942D01*
X155951180Y-90101895D01*
%TO.C,J2*%
X149013666Y-100669580D02*
X149013666Y-101383866D01*
X148966047Y-101526723D01*
X148870809Y-101621961D01*
X148727952Y-101669580D01*
X148632714Y-101669580D01*
X149442238Y-100764819D02*
X149489857Y-100717200D01*
X149585095Y-100669580D01*
X149823190Y-100669580D01*
X149918428Y-100717200D01*
X149966047Y-100764819D01*
X150013666Y-100860057D01*
X150013666Y-100955295D01*
X149966047Y-101098152D01*
X149394619Y-101669580D01*
X150013666Y-101669580D01*
%TO.C,R6*%
X158699733Y-101054180D02*
X158366400Y-100577990D01*
X158128304Y-101054180D02*
X158128304Y-100054180D01*
X158509257Y-100054180D01*
X158604495Y-100101800D01*
X158652114Y-100149419D01*
X158699733Y-100244657D01*
X158699733Y-100387514D01*
X158652114Y-100482752D01*
X158604495Y-100530371D01*
X158509257Y-100577990D01*
X158128304Y-100577990D01*
X159556876Y-100054180D02*
X159366400Y-100054180D01*
X159271161Y-100101800D01*
X159223542Y-100149419D01*
X159128304Y-100292276D01*
X159080685Y-100482752D01*
X159080685Y-100863704D01*
X159128304Y-100958942D01*
X159175923Y-101006561D01*
X159271161Y-101054180D01*
X159461638Y-101054180D01*
X159556876Y-101006561D01*
X159604495Y-100958942D01*
X159652114Y-100863704D01*
X159652114Y-100625609D01*
X159604495Y-100530371D01*
X159556876Y-100482752D01*
X159461638Y-100435133D01*
X159271161Y-100435133D01*
X159175923Y-100482752D01*
X159128304Y-100530371D01*
X159080685Y-100625609D01*
%TO.C,J1*%
X176664423Y-99883980D02*
X176664423Y-100598266D01*
X176616804Y-100741123D01*
X176521566Y-100836361D01*
X176378709Y-100883980D01*
X176283471Y-100883980D01*
X177664423Y-100883980D02*
X177092995Y-100883980D01*
X177378709Y-100883980D02*
X177378709Y-99883980D01*
X177283471Y-100026838D01*
X177188233Y-100122076D01*
X177092995Y-100169695D01*
X163670342Y-88204523D02*
X163670342Y-86934523D01*
X164396057Y-88204523D02*
X163851771Y-87478809D01*
X164396057Y-86934523D02*
X163670342Y-87660238D01*
X165545104Y-88204523D02*
X164940342Y-88204523D01*
X164940342Y-86934523D01*
X165968438Y-88204523D02*
X165968438Y-86934523D01*
X166270819Y-86934523D01*
X166452247Y-86995000D01*
X166573200Y-87115952D01*
X166633676Y-87236904D01*
X166694152Y-87478809D01*
X166694152Y-87660238D01*
X166633676Y-87902142D01*
X166573200Y-88023095D01*
X166452247Y-88144047D01*
X166270819Y-88204523D01*
X165968438Y-88204523D01*
X167117485Y-86934523D02*
X167964152Y-88204523D01*
X167964152Y-86934523D02*
X167117485Y-88204523D01*
X168447961Y-87720714D02*
X169415580Y-87720714D01*
X170262247Y-86934523D02*
X170383200Y-86934523D01*
X170504152Y-86995000D01*
X170564628Y-87055476D01*
X170625104Y-87176428D01*
X170685580Y-87418333D01*
X170685580Y-87720714D01*
X170625104Y-87962619D01*
X170564628Y-88083571D01*
X170504152Y-88144047D01*
X170383200Y-88204523D01*
X170262247Y-88204523D01*
X170141295Y-88144047D01*
X170080819Y-88083571D01*
X170020342Y-87962619D01*
X169959866Y-87720714D01*
X169959866Y-87418333D01*
X170020342Y-87176428D01*
X170080819Y-87055476D01*
X170141295Y-86995000D01*
X170262247Y-86934523D01*
X171169390Y-87055476D02*
X171229866Y-86995000D01*
X171350819Y-86934523D01*
X171653200Y-86934523D01*
X171774152Y-86995000D01*
X171834628Y-87055476D01*
X171895104Y-87176428D01*
X171895104Y-87297380D01*
X171834628Y-87478809D01*
X171108914Y-88204523D01*
X171895104Y-88204523D01*
X172681295Y-86934523D02*
X172802247Y-86934523D01*
X172923200Y-86995000D01*
X172983676Y-87055476D01*
X173044152Y-87176428D01*
X173104628Y-87418333D01*
X173104628Y-87720714D01*
X173044152Y-87962619D01*
X172983676Y-88083571D01*
X172923200Y-88144047D01*
X172802247Y-88204523D01*
X172681295Y-88204523D01*
X172560342Y-88144047D01*
X172499866Y-88083571D01*
X172439390Y-87962619D01*
X172378914Y-87720714D01*
X172378914Y-87418333D01*
X172439390Y-87176428D01*
X172499866Y-87055476D01*
X172560342Y-86995000D01*
X172681295Y-86934523D01*
X173588438Y-87055476D02*
X173648914Y-86995000D01*
X173769866Y-86934523D01*
X174072247Y-86934523D01*
X174193200Y-86995000D01*
X174253676Y-87055476D01*
X174314152Y-87176428D01*
X174314152Y-87297380D01*
X174253676Y-87478809D01*
X173527961Y-88204523D01*
X174314152Y-88204523D01*
X174858438Y-87720714D02*
X175826057Y-87720714D01*
X176854152Y-87539285D02*
X177035580Y-87599761D01*
X177096057Y-87660238D01*
X177156533Y-87781190D01*
X177156533Y-87962619D01*
X177096057Y-88083571D01*
X177035580Y-88144047D01*
X176914628Y-88204523D01*
X176430819Y-88204523D01*
X176430819Y-86934523D01*
X176854152Y-86934523D01*
X176975104Y-86995000D01*
X177035580Y-87055476D01*
X177096057Y-87176428D01*
X177096057Y-87297380D01*
X177035580Y-87418333D01*
X176975104Y-87478809D01*
X176854152Y-87539285D01*
X176430819Y-87539285D01*
%TO.C,U5*%
X136046695Y-111433780D02*
X136046695Y-112243304D01*
X136094314Y-112338542D01*
X136141933Y-112386161D01*
X136237171Y-112433780D01*
X136427647Y-112433780D01*
X136522885Y-112386161D01*
X136570504Y-112338542D01*
X136618123Y-112243304D01*
X136618123Y-111433780D01*
X137570504Y-111433780D02*
X137094314Y-111433780D01*
X137046695Y-111909971D01*
X137094314Y-111862352D01*
X137189552Y-111814733D01*
X137427647Y-111814733D01*
X137522885Y-111862352D01*
X137570504Y-111909971D01*
X137618123Y-112005209D01*
X137618123Y-112243304D01*
X137570504Y-112338542D01*
X137522885Y-112386161D01*
X137427647Y-112433780D01*
X137189552Y-112433780D01*
X137094314Y-112386161D01*
X137046695Y-112338542D01*
%TO.C,U3*%
X152857295Y-96531180D02*
X152857295Y-97340704D01*
X152904914Y-97435942D01*
X152952533Y-97483561D01*
X153047771Y-97531180D01*
X153238247Y-97531180D01*
X153333485Y-97483561D01*
X153381104Y-97435942D01*
X153428723Y-97340704D01*
X153428723Y-96531180D01*
X153809676Y-96531180D02*
X154428723Y-96531180D01*
X154095390Y-96912133D01*
X154238247Y-96912133D01*
X154333485Y-96959752D01*
X154381104Y-97007371D01*
X154428723Y-97102609D01*
X154428723Y-97340704D01*
X154381104Y-97435942D01*
X154333485Y-97483561D01*
X154238247Y-97531180D01*
X153952533Y-97531180D01*
X153857295Y-97483561D01*
X153809676Y-97435942D01*
%TO.C,U1*%
X165455695Y-90282780D02*
X165455695Y-91092304D01*
X165503314Y-91187542D01*
X165550933Y-91235161D01*
X165646171Y-91282780D01*
X165836647Y-91282780D01*
X165931885Y-91235161D01*
X165979504Y-91187542D01*
X166027123Y-91092304D01*
X166027123Y-90282780D01*
X167027123Y-91282780D02*
X166455695Y-91282780D01*
X166741409Y-91282780D02*
X166741409Y-90282780D01*
X166646171Y-90425638D01*
X166550933Y-90520876D01*
X166455695Y-90568495D01*
%TO.C,R2*%
X170367033Y-112143780D02*
X170033700Y-111667590D01*
X169795604Y-112143780D02*
X169795604Y-111143780D01*
X170176557Y-111143780D01*
X170271795Y-111191400D01*
X170319414Y-111239019D01*
X170367033Y-111334257D01*
X170367033Y-111477114D01*
X170319414Y-111572352D01*
X170271795Y-111619971D01*
X170176557Y-111667590D01*
X169795604Y-111667590D01*
X170747985Y-111239019D02*
X170795604Y-111191400D01*
X170890842Y-111143780D01*
X171128938Y-111143780D01*
X171224176Y-111191400D01*
X171271795Y-111239019D01*
X171319414Y-111334257D01*
X171319414Y-111429495D01*
X171271795Y-111572352D01*
X170700366Y-112143780D01*
X171319414Y-112143780D01*
%TO.C,R5*%
X155951180Y-94553066D02*
X155474990Y-94886400D01*
X155951180Y-95124495D02*
X154951180Y-95124495D01*
X154951180Y-94743542D01*
X154998800Y-94648304D01*
X155046419Y-94600685D01*
X155141657Y-94553066D01*
X155284514Y-94553066D01*
X155379752Y-94600685D01*
X155427371Y-94648304D01*
X155474990Y-94743542D01*
X155474990Y-95124495D01*
X154951180Y-93648304D02*
X154951180Y-94124495D01*
X155427371Y-94172114D01*
X155379752Y-94124495D01*
X155332133Y-94029257D01*
X155332133Y-93791161D01*
X155379752Y-93695923D01*
X155427371Y-93648304D01*
X155522609Y-93600685D01*
X155760704Y-93600685D01*
X155855942Y-93648304D01*
X155903561Y-93695923D01*
X155951180Y-93791161D01*
X155951180Y-94029257D01*
X155903561Y-94124495D01*
X155855942Y-94172114D01*
%TO.C,J3*%
X128774866Y-87412580D02*
X128774866Y-88126866D01*
X128727247Y-88269723D01*
X128632009Y-88364961D01*
X128489152Y-88412580D01*
X128393914Y-88412580D01*
X129155819Y-87412580D02*
X129774866Y-87412580D01*
X129441533Y-87793533D01*
X129584390Y-87793533D01*
X129679628Y-87841152D01*
X129727247Y-87888771D01*
X129774866Y-87984009D01*
X129774866Y-88222104D01*
X129727247Y-88317342D01*
X129679628Y-88364961D01*
X129584390Y-88412580D01*
X129298676Y-88412580D01*
X129203438Y-88364961D01*
X129155819Y-88317342D01*
%TO.C,R4*%
X165460380Y-103087466D02*
X164984190Y-103420800D01*
X165460380Y-103658895D02*
X164460380Y-103658895D01*
X164460380Y-103277942D01*
X164508000Y-103182704D01*
X164555619Y-103135085D01*
X164650857Y-103087466D01*
X164793714Y-103087466D01*
X164888952Y-103135085D01*
X164936571Y-103182704D01*
X164984190Y-103277942D01*
X164984190Y-103658895D01*
X164793714Y-102230323D02*
X165460380Y-102230323D01*
X164412761Y-102468419D02*
X165127047Y-102706514D01*
X165127047Y-102087466D01*
%TO.C,C1*%
X164857133Y-101456742D02*
X164809514Y-101504361D01*
X164666657Y-101551980D01*
X164571419Y-101551980D01*
X164428561Y-101504361D01*
X164333323Y-101409123D01*
X164285704Y-101313885D01*
X164238085Y-101123409D01*
X164238085Y-100980552D01*
X164285704Y-100790076D01*
X164333323Y-100694838D01*
X164428561Y-100599600D01*
X164571419Y-100551980D01*
X164666657Y-100551980D01*
X164809514Y-100599600D01*
X164857133Y-100647219D01*
X165809514Y-101551980D02*
X165238085Y-101551980D01*
X165523800Y-101551980D02*
X165523800Y-100551980D01*
X165428561Y-100694838D01*
X165333323Y-100790076D01*
X165238085Y-100837695D01*
%TO.C,R9*%
X141592580Y-100037566D02*
X141116390Y-100370900D01*
X141592580Y-100608995D02*
X140592580Y-100608995D01*
X140592580Y-100228042D01*
X140640200Y-100132804D01*
X140687819Y-100085185D01*
X140783057Y-100037566D01*
X140925914Y-100037566D01*
X141021152Y-100085185D01*
X141068771Y-100132804D01*
X141116390Y-100228042D01*
X141116390Y-100608995D01*
X141592580Y-99561376D02*
X141592580Y-99370900D01*
X141544961Y-99275661D01*
X141497342Y-99228042D01*
X141354485Y-99132804D01*
X141164009Y-99085185D01*
X140783057Y-99085185D01*
X140687819Y-99132804D01*
X140640200Y-99180423D01*
X140592580Y-99275661D01*
X140592580Y-99466138D01*
X140640200Y-99561376D01*
X140687819Y-99608995D01*
X140783057Y-99656614D01*
X141021152Y-99656614D01*
X141116390Y-99608995D01*
X141164009Y-99561376D01*
X141211628Y-99466138D01*
X141211628Y-99275661D01*
X141164009Y-99180423D01*
X141116390Y-99132804D01*
X141021152Y-99085185D01*
%TO.C,R7*%
X157389533Y-98521780D02*
X157056200Y-98045590D01*
X156818104Y-98521780D02*
X156818104Y-97521780D01*
X157199057Y-97521780D01*
X157294295Y-97569400D01*
X157341914Y-97617019D01*
X157389533Y-97712257D01*
X157389533Y-97855114D01*
X157341914Y-97950352D01*
X157294295Y-97997971D01*
X157199057Y-98045590D01*
X156818104Y-98045590D01*
X157722866Y-97521780D02*
X158389533Y-97521780D01*
X157960961Y-98521780D01*
%TO.C,R11*%
X163631542Y-109944180D02*
X163298209Y-109467990D01*
X163060114Y-109944180D02*
X163060114Y-108944180D01*
X163441066Y-108944180D01*
X163536304Y-108991800D01*
X163583923Y-109039419D01*
X163631542Y-109134657D01*
X163631542Y-109277514D01*
X163583923Y-109372752D01*
X163536304Y-109420371D01*
X163441066Y-109467990D01*
X163060114Y-109467990D01*
X164583923Y-109944180D02*
X164012495Y-109944180D01*
X164298209Y-109944180D02*
X164298209Y-108944180D01*
X164202971Y-109087038D01*
X164107733Y-109182276D01*
X164012495Y-109229895D01*
X165536304Y-109944180D02*
X164964876Y-109944180D01*
X165250590Y-109944180D02*
X165250590Y-108944180D01*
X165155352Y-109087038D01*
X165060114Y-109182276D01*
X164964876Y-109229895D01*
%TO.C,R8*%
X141592580Y-91809866D02*
X141116390Y-92143200D01*
X141592580Y-92381295D02*
X140592580Y-92381295D01*
X140592580Y-92000342D01*
X140640200Y-91905104D01*
X140687819Y-91857485D01*
X140783057Y-91809866D01*
X140925914Y-91809866D01*
X141021152Y-91857485D01*
X141068771Y-91905104D01*
X141116390Y-92000342D01*
X141116390Y-92381295D01*
X141021152Y-91238438D02*
X140973533Y-91333676D01*
X140925914Y-91381295D01*
X140830676Y-91428914D01*
X140783057Y-91428914D01*
X140687819Y-91381295D01*
X140640200Y-91333676D01*
X140592580Y-91238438D01*
X140592580Y-91047961D01*
X140640200Y-90952723D01*
X140687819Y-90905104D01*
X140783057Y-90857485D01*
X140830676Y-90857485D01*
X140925914Y-90905104D01*
X140973533Y-90952723D01*
X141021152Y-91047961D01*
X141021152Y-91238438D01*
X141068771Y-91333676D01*
X141116390Y-91381295D01*
X141211628Y-91428914D01*
X141402104Y-91428914D01*
X141497342Y-91381295D01*
X141544961Y-91333676D01*
X141592580Y-91238438D01*
X141592580Y-91047961D01*
X141544961Y-90952723D01*
X141497342Y-90905104D01*
X141402104Y-90857485D01*
X141211628Y-90857485D01*
X141116390Y-90905104D01*
X141068771Y-90952723D01*
X141021152Y-91047961D01*
%TO.C,R10*%
X144452580Y-96451657D02*
X143976390Y-96784990D01*
X144452580Y-97023085D02*
X143452580Y-97023085D01*
X143452580Y-96642133D01*
X143500200Y-96546895D01*
X143547819Y-96499276D01*
X143643057Y-96451657D01*
X143785914Y-96451657D01*
X143881152Y-96499276D01*
X143928771Y-96546895D01*
X143976390Y-96642133D01*
X143976390Y-97023085D01*
X144452580Y-95499276D02*
X144452580Y-96070704D01*
X144452580Y-95784990D02*
X143452580Y-95784990D01*
X143595438Y-95880228D01*
X143690676Y-95975466D01*
X143738295Y-96070704D01*
X143452580Y-94880228D02*
X143452580Y-94784990D01*
X143500200Y-94689752D01*
X143547819Y-94642133D01*
X143643057Y-94594514D01*
X143833533Y-94546895D01*
X144071628Y-94546895D01*
X144262104Y-94594514D01*
X144357342Y-94642133D01*
X144404961Y-94689752D01*
X144452580Y-94784990D01*
X144452580Y-94880228D01*
X144404961Y-94975466D01*
X144357342Y-95023085D01*
X144262104Y-95070704D01*
X144071628Y-95118323D01*
X143833533Y-95118323D01*
X143643057Y-95070704D01*
X143547819Y-95023085D01*
X143500200Y-94975466D01*
X143452580Y-94880228D01*
%TO.C,U2*%
X167411495Y-101116980D02*
X167411495Y-101926504D01*
X167459114Y-102021742D01*
X167506733Y-102069361D01*
X167601971Y-102116980D01*
X167792447Y-102116980D01*
X167887685Y-102069361D01*
X167935304Y-102021742D01*
X167982923Y-101926504D01*
X167982923Y-101116980D01*
X168411495Y-101212219D02*
X168459114Y-101164600D01*
X168554352Y-101116980D01*
X168792447Y-101116980D01*
X168887685Y-101164600D01*
X168935304Y-101212219D01*
X168982923Y-101307457D01*
X168982923Y-101402695D01*
X168935304Y-101545552D01*
X168363876Y-102116980D01*
X168982923Y-102116980D01*
%TO.C,R1*%
X159245733Y-109944180D02*
X158912400Y-109467990D01*
X158674304Y-109944180D02*
X158674304Y-108944180D01*
X159055257Y-108944180D01*
X159150495Y-108991800D01*
X159198114Y-109039419D01*
X159245733Y-109134657D01*
X159245733Y-109277514D01*
X159198114Y-109372752D01*
X159150495Y-109420371D01*
X159055257Y-109467990D01*
X158674304Y-109467990D01*
X160198114Y-109944180D02*
X159626685Y-109944180D01*
X159912400Y-109944180D02*
X159912400Y-108944180D01*
X159817161Y-109087038D01*
X159721923Y-109182276D01*
X159626685Y-109229895D01*
%TO.C,C2*%
X163231542Y-106898566D02*
X163279161Y-106946185D01*
X163326780Y-107089042D01*
X163326780Y-107184280D01*
X163279161Y-107327138D01*
X163183923Y-107422376D01*
X163088685Y-107469995D01*
X162898209Y-107517614D01*
X162755352Y-107517614D01*
X162564876Y-107469995D01*
X162469638Y-107422376D01*
X162374400Y-107327138D01*
X162326780Y-107184280D01*
X162326780Y-107089042D01*
X162374400Y-106946185D01*
X162422019Y-106898566D01*
X162422019Y-106517614D02*
X162374400Y-106469995D01*
X162326780Y-106374757D01*
X162326780Y-106136661D01*
X162374400Y-106041423D01*
X162422019Y-105993804D01*
X162517257Y-105946185D01*
X162612495Y-105946185D01*
X162755352Y-105993804D01*
X163326780Y-106565233D01*
X163326780Y-105946185D01*
D11*
%TO.C,R3*%
X174675076Y-110758500D02*
X175184524Y-110758500D01*
X174675076Y-109713500D02*
X175184524Y-109713500D01*
%TO.C,R12*%
X158092224Y-91784700D02*
X157582776Y-91784700D01*
X158092224Y-90739700D02*
X157582776Y-90739700D01*
%TO.C,J2*%
X145557000Y-102277200D02*
X148057000Y-102277200D01*
X144207000Y-109127200D02*
X154487000Y-109127200D01*
X150637000Y-102277200D02*
X153137000Y-102277200D01*
X144207000Y-102217200D02*
X144207000Y-110787200D01*
X145557000Y-103277200D02*
X148057000Y-103277200D01*
X148057000Y-102277200D02*
X148057000Y-103277200D01*
X144207000Y-104127200D02*
X154487000Y-104127200D01*
X143967000Y-111027200D02*
X144467000Y-111027200D01*
X151017000Y-107722200D02*
X150977000Y-107762200D01*
X145557000Y-102277200D02*
X145557000Y-103277200D01*
X152798000Y-105592200D02*
X152758000Y-105632200D01*
X144207000Y-102217200D02*
X154487000Y-102217200D01*
X154487000Y-102217200D02*
X154487000Y-110787200D01*
X144207000Y-110227200D02*
X154487000Y-110227200D01*
X153137000Y-102277200D02*
X153137000Y-103277200D01*
X150863000Y-107527200D02*
X150803000Y-107587200D01*
X144207000Y-110787200D02*
X154487000Y-110787200D01*
X143967000Y-110287200D02*
X143967000Y-111027200D01*
X150637000Y-102277200D02*
X150637000Y-103277200D01*
X150637000Y-103277200D02*
X153137000Y-103277200D01*
X152972000Y-105767200D02*
X152912000Y-105826200D01*
X148093000Y-107304200D02*
G75*
G03*
X148092823Y-106049838I-1286006J627000D01*
G01*
X146179000Y-107963200D02*
G75*
G03*
X146831280Y-108108140I628002J1286011D01*
G01*
X145521000Y-106049200D02*
G75*
G03*
X145520389Y-107303946I1285999J-627999D01*
G01*
X147434000Y-105391200D02*
G75*
G03*
X146179638Y-105391377I-627000J-1286006D01*
G01*
X146807000Y-108107200D02*
G75*
G03*
X147433871Y-107962475I-1J1430001D01*
G01*
X153317000Y-106677200D02*
G75*
G03*
X153317000Y-106677200I-1430000J0D01*
G01*
%TO.C,R6*%
X158611676Y-102554300D02*
X159121124Y-102554300D01*
X158611676Y-101509300D02*
X159121124Y-101509300D01*
D10*
%TO.C,J1*%
X182286300Y-99132000D02*
X167486300Y-99132000D01*
X182286300Y-89832000D02*
X182286300Y-99132000D01*
X167486300Y-97306999D02*
X167486300Y-99132000D01*
X167486300Y-89832000D02*
X167486300Y-91657001D01*
X168861300Y-89832000D02*
X167486300Y-89832000D01*
X182286300Y-89832000D02*
X174011300Y-89832000D01*
D12*
X167086300Y-94482000D02*
G75*
G03*
X167086300Y-94482000I-125000J0D01*
G01*
D11*
%TO.C,U5*%
X137478600Y-110491400D02*
X138258600Y-110491400D01*
X112513600Y-110491400D02*
X112513600Y-92251400D01*
X138258600Y-92251400D02*
X138258600Y-93251400D01*
X138258600Y-110491400D02*
X138258600Y-109491400D01*
X137478600Y-92251400D02*
X138258600Y-92251400D01*
X118933600Y-110491400D02*
X118933600Y-110871400D01*
X112513600Y-110491400D02*
X118933600Y-110491400D01*
X112513600Y-92251400D02*
X118933600Y-92251400D01*
%TO.C,U3*%
X150926800Y-90660800D02*
X153126800Y-90660800D01*
X150926800Y-96130800D02*
X148726800Y-96130800D01*
X150926800Y-90660800D02*
X148726800Y-90660800D01*
X150926800Y-96130800D02*
X154526800Y-96130800D01*
%TO.C,U1*%
X161939800Y-92278200D02*
X161939800Y-91478200D01*
X161939800Y-92278200D02*
X161939800Y-94078200D01*
X165059800Y-92278200D02*
X165059800Y-91478200D01*
X165059800Y-92278200D02*
X165059800Y-93078200D01*
%TO.C,R2*%
X170788424Y-110783900D02*
X170278976Y-110783900D01*
X170788424Y-109738900D02*
X170278976Y-109738900D01*
%TO.C,R5*%
X157530076Y-94934300D02*
X158039524Y-94934300D01*
X157530076Y-93889300D02*
X158039524Y-93889300D01*
%TO.C,R4*%
X163055500Y-102666076D02*
X163055500Y-103175524D01*
X164100500Y-102666076D02*
X164100500Y-103175524D01*
%TO.C,C1*%
X165170067Y-100179600D02*
X164877533Y-100179600D01*
X165170067Y-99159600D02*
X164877533Y-99159600D01*
%TO.C,R9*%
X143092700Y-100125624D02*
X143092700Y-99616176D01*
X142047700Y-100125624D02*
X142047700Y-99616176D01*
%TO.C,R7*%
X158039524Y-97017100D02*
X157530076Y-97017100D01*
X158039524Y-95972100D02*
X157530076Y-95972100D01*
%TO.C,R11*%
X164019676Y-110399300D02*
X164529124Y-110399300D01*
X164019676Y-111444300D02*
X164529124Y-111444300D01*
%TO.C,R8*%
X143092700Y-91897924D02*
X143092700Y-91388476D01*
X142047700Y-91897924D02*
X142047700Y-91388476D01*
%TO.C,R10*%
X143092700Y-95554076D02*
X143092700Y-96063524D01*
X142047700Y-95554076D02*
X142047700Y-96063524D01*
%TO.C,U2*%
X167238400Y-105724600D02*
X166563400Y-105724600D01*
X169783400Y-102504600D02*
X169783400Y-102679600D01*
X169108400Y-102504600D02*
X169783400Y-102504600D01*
X169783400Y-105724600D02*
X169783400Y-105549600D01*
X169108400Y-105724600D02*
X169783400Y-105724600D01*
X167238400Y-102504600D02*
X166563400Y-102504600D01*
X166563400Y-105724600D02*
X166563400Y-105549600D01*
%TO.C,R1*%
X159157676Y-110399300D02*
X159667124Y-110399300D01*
X159157676Y-111444300D02*
X159667124Y-111444300D01*
%TO.C,C2*%
X161954400Y-106585633D02*
X161954400Y-106878167D01*
X160934400Y-106585633D02*
X160934400Y-106878167D01*
%TD*%
M02*
