M48
; DRILL file {KiCad (6.0.2-0)} date Wednesday, March 23, 2022 at 11:12:35 AM
; FORMAT={-:-/ absolute / inch / decimal}
; #@! TF.CreationDate,2022-03-23T11:12:35-04:00
; #@! TF.GenerationSoftware,Kicad,Pcbnew,(6.0.2-0)
; #@! TF.FileFunction,Plated,1,2,PTH
FMAT,2
INCH
; #@! TA.AperFunction,Plated,PTH,ViaDrill
T1C0.0157
; #@! TA.AperFunction,Plated,PTH,ComponentDrill
T2C0.0236
; #@! TA.AperFunction,Plated,PTH,ComponentDrill
T3C0.0315
; #@! TA.AperFunction,Plated,PTH,ComponentDrill
T4C0.0350
; #@! TA.AperFunction,Plated,PTH,ComponentDrill
T5C0.0393
; #@! TA.AperFunction,Plated,PTH,ComponentDrill
T6C0.0433
%
G90
G05
T1
X4.728Y-3.738
X5.026Y-4.18
X5.511Y-4.217
X5.538Y-3.549
X5.539Y-3.812
X5.543Y-3.908
X5.707Y-3.766
X5.708Y-3.627
X5.727Y-3.849
X5.745Y-3.666
X5.765Y-3.914
X5.877Y-4.037
X5.918Y-3.627
X5.955Y-3.532
X5.97Y-3.741
X5.97Y-3.8405
X6.09Y-4.007
X6.101Y-3.788
X6.12Y-4.095
X6.131Y-3.674
X6.154Y-3.9
X6.21Y-4.071
X6.247Y-4.23
X6.258Y-3.87
X6.259Y-3.657
X6.356Y-4.019
X6.395Y-3.905
X6.5062Y-4.208
X6.552Y-4.199
X6.729Y-4.12
X6.803Y-4.228
X6.936Y-3.83
T2
X4.839Y-3.483
X4.9807Y-3.483
T6
X5.7798Y-4.1999
X5.9798Y-4.1999
T3
G00X6.8045Y-3.5347
M15
G01X6.6945Y-3.5347
M16
G05
T4
G00X6.8676Y-3.7771
M15
G01X6.8676Y-3.6624
M16
G05
T5
G00X6.6235Y-3.7848
M15
G01X6.6235Y-3.6548
M16
G05
T0
M30
