%TF.GenerationSoftware,KiCad,Pcbnew,(6.0.2-0)*%
%TF.CreationDate,2022-03-21T14:05:32-04:00*%
%TF.ProjectId,Woodstock,576f6f64-7374-46f6-936b-2e6b69636164,v03*%
%TF.SameCoordinates,Original*%
%TF.FileFunction,Legend,Top*%
%TF.FilePolarity,Positive*%
%FSLAX46Y46*%
G04 Gerber Fmt 4.6, Leading zero omitted, Abs format (unit mm)*
G04 Created by KiCad (PCBNEW (6.0.2-0)) date 2022-03-21 14:05:32*
%MOMM*%
%LPD*%
G01*
G04 APERTURE LIST*
%ADD10C,0.150000*%
%ADD11C,0.127000*%
%ADD12C,0.120000*%
%ADD13C,0.249999*%
G04 APERTURE END LIST*
D10*
%TO.C,R8*%
X144996740Y-96460026D02*
X144520550Y-96793360D01*
X144996740Y-97031455D02*
X143996740Y-97031455D01*
X143996740Y-96650502D01*
X144044360Y-96555264D01*
X144091979Y-96507645D01*
X144187217Y-96460026D01*
X144330074Y-96460026D01*
X144425312Y-96507645D01*
X144472931Y-96555264D01*
X144520550Y-96650502D01*
X144520550Y-97031455D01*
X144425312Y-95888598D02*
X144377693Y-95983836D01*
X144330074Y-96031455D01*
X144234836Y-96079074D01*
X144187217Y-96079074D01*
X144091979Y-96031455D01*
X144044360Y-95983836D01*
X143996740Y-95888598D01*
X143996740Y-95698121D01*
X144044360Y-95602883D01*
X144091979Y-95555264D01*
X144187217Y-95507645D01*
X144234836Y-95507645D01*
X144330074Y-95555264D01*
X144377693Y-95602883D01*
X144425312Y-95698121D01*
X144425312Y-95888598D01*
X144472931Y-95983836D01*
X144520550Y-96031455D01*
X144615788Y-96079074D01*
X144806264Y-96079074D01*
X144901502Y-96031455D01*
X144949121Y-95983836D01*
X144996740Y-95888598D01*
X144996740Y-95698121D01*
X144949121Y-95602883D01*
X144901502Y-95555264D01*
X144806264Y-95507645D01*
X144615788Y-95507645D01*
X144520550Y-95555264D01*
X144472931Y-95602883D01*
X144425312Y-95698121D01*
%TO.C,J1*%
X153249349Y-103837720D02*
X153249349Y-104552006D01*
X153201730Y-104694863D01*
X153106492Y-104790101D01*
X152963635Y-104837720D01*
X152868397Y-104837720D01*
X154249349Y-104837720D02*
X153677920Y-104837720D01*
X153963635Y-104837720D02*
X153963635Y-103837720D01*
X153868397Y-103980578D01*
X153773159Y-104075816D01*
X153677920Y-104123435D01*
D11*
X148199973Y-100017749D02*
X147958068Y-100017749D01*
X147933878Y-100259654D01*
X147958068Y-100235463D01*
X148006449Y-100211273D01*
X148127401Y-100211273D01*
X148175782Y-100235463D01*
X148199973Y-100259654D01*
X148224163Y-100308035D01*
X148224163Y-100428987D01*
X148199973Y-100477368D01*
X148175782Y-100501559D01*
X148127401Y-100525749D01*
X148006449Y-100525749D01*
X147958068Y-100501559D01*
X147933878Y-100477368D01*
X148538640Y-100017749D02*
X148587020Y-100017749D01*
X148635401Y-100041940D01*
X148659592Y-100066130D01*
X148683782Y-100114511D01*
X148707973Y-100211273D01*
X148707973Y-100332225D01*
X148683782Y-100428987D01*
X148659592Y-100477368D01*
X148635401Y-100501559D01*
X148587020Y-100525749D01*
X148538640Y-100525749D01*
X148490259Y-100501559D01*
X148466068Y-100477368D01*
X148441878Y-100428987D01*
X148417687Y-100332225D01*
X148417687Y-100211273D01*
X148441878Y-100114511D01*
X148466068Y-100066130D01*
X148490259Y-100041940D01*
X148538640Y-100017749D01*
X149191782Y-100525749D02*
X148901497Y-100525749D01*
X149046640Y-100525749D02*
X149046640Y-100017749D01*
X148998259Y-100090320D01*
X148949878Y-100138701D01*
X148901497Y-100162892D01*
X149627211Y-100187082D02*
X149627211Y-100525749D01*
X149506259Y-99993559D02*
X149385306Y-100356416D01*
X149699782Y-100356416D01*
X150111020Y-100017749D02*
X150014259Y-100017749D01*
X149965878Y-100041940D01*
X149941687Y-100066130D01*
X149893306Y-100138701D01*
X149869116Y-100235463D01*
X149869116Y-100428987D01*
X149893306Y-100477368D01*
X149917497Y-100501559D01*
X149965878Y-100525749D01*
X150062640Y-100525749D01*
X150111020Y-100501559D01*
X150135211Y-100477368D01*
X150159401Y-100428987D01*
X150159401Y-100308035D01*
X150135211Y-100259654D01*
X150111020Y-100235463D01*
X150062640Y-100211273D01*
X149965878Y-100211273D01*
X149917497Y-100235463D01*
X149893306Y-100259654D01*
X149869116Y-100308035D01*
X150643211Y-100525749D02*
X150352925Y-100525749D01*
X150498068Y-100525749D02*
X150498068Y-100017749D01*
X150449687Y-100090320D01*
X150401306Y-100138701D01*
X150352925Y-100162892D01*
X150860925Y-100332225D02*
X151247973Y-100332225D01*
X151586640Y-100017749D02*
X151635020Y-100017749D01*
X151683401Y-100041940D01*
X151707592Y-100066130D01*
X151731782Y-100114511D01*
X151755973Y-100211273D01*
X151755973Y-100332225D01*
X151731782Y-100428987D01*
X151707592Y-100477368D01*
X151683401Y-100501559D01*
X151635020Y-100525749D01*
X151586640Y-100525749D01*
X151538259Y-100501559D01*
X151514068Y-100477368D01*
X151489878Y-100428987D01*
X151465687Y-100332225D01*
X151465687Y-100211273D01*
X151489878Y-100114511D01*
X151514068Y-100066130D01*
X151538259Y-100041940D01*
X151586640Y-100017749D01*
X152191401Y-100187082D02*
X152191401Y-100525749D01*
X152070449Y-99993559D02*
X151949497Y-100356416D01*
X152263973Y-100356416D01*
X152481687Y-100525749D02*
X152578449Y-100525749D01*
X152626830Y-100501559D01*
X152651020Y-100477368D01*
X152699401Y-100404797D01*
X152723592Y-100308035D01*
X152723592Y-100114511D01*
X152699401Y-100066130D01*
X152675211Y-100041940D01*
X152626830Y-100017749D01*
X152530068Y-100017749D01*
X152481687Y-100041940D01*
X152457497Y-100066130D01*
X152433306Y-100114511D01*
X152433306Y-100235463D01*
X152457497Y-100283844D01*
X152481687Y-100308035D01*
X152530068Y-100332225D01*
X152626830Y-100332225D01*
X152675211Y-100308035D01*
X152699401Y-100283844D01*
X152723592Y-100235463D01*
X153207401Y-100525749D02*
X152917116Y-100525749D01*
X153062259Y-100525749D02*
X153062259Y-100017749D01*
X153013878Y-100090320D01*
X152965497Y-100138701D01*
X152917116Y-100162892D01*
D10*
%TO.C,U2*%
X153213455Y-96839840D02*
X153213455Y-97649364D01*
X153261074Y-97744602D01*
X153308693Y-97792221D01*
X153403931Y-97839840D01*
X153594407Y-97839840D01*
X153689645Y-97792221D01*
X153737264Y-97744602D01*
X153784883Y-97649364D01*
X153784883Y-96839840D01*
X154213455Y-96935079D02*
X154261074Y-96887460D01*
X154356312Y-96839840D01*
X154594407Y-96839840D01*
X154689645Y-96887460D01*
X154737264Y-96935079D01*
X154784883Y-97030317D01*
X154784883Y-97125555D01*
X154737264Y-97268412D01*
X154165836Y-97839840D01*
X154784883Y-97839840D01*
%TO.C,R7*%
X148091233Y-91253640D02*
X147757900Y-90777450D01*
X147519804Y-91253640D02*
X147519804Y-90253640D01*
X147900757Y-90253640D01*
X147995995Y-90301260D01*
X148043614Y-90348879D01*
X148091233Y-90444117D01*
X148091233Y-90586974D01*
X148043614Y-90682212D01*
X147995995Y-90729831D01*
X147900757Y-90777450D01*
X147519804Y-90777450D01*
X148424566Y-90253640D02*
X149091233Y-90253640D01*
X148662661Y-91253640D01*
%TO.C,R6*%
X153401733Y-91249780D02*
X153068400Y-90773590D01*
X152830304Y-91249780D02*
X152830304Y-90249780D01*
X153211257Y-90249780D01*
X153306495Y-90297400D01*
X153354114Y-90345019D01*
X153401733Y-90440257D01*
X153401733Y-90583114D01*
X153354114Y-90678352D01*
X153306495Y-90725971D01*
X153211257Y-90773590D01*
X152830304Y-90773590D01*
X154258876Y-90249780D02*
X154068400Y-90249780D01*
X153973161Y-90297400D01*
X153925542Y-90345019D01*
X153830304Y-90487876D01*
X153782685Y-90678352D01*
X153782685Y-91059304D01*
X153830304Y-91154542D01*
X153877923Y-91202161D01*
X153973161Y-91249780D01*
X154163638Y-91249780D01*
X154258876Y-91202161D01*
X154306495Y-91154542D01*
X154354114Y-91059304D01*
X154354114Y-90821209D01*
X154306495Y-90725971D01*
X154258876Y-90678352D01*
X154163638Y-90630733D01*
X153973161Y-90630733D01*
X153877923Y-90678352D01*
X153830304Y-90725971D01*
X153782685Y-90821209D01*
D12*
%TO.C,R8*%
X145451860Y-96548084D02*
X145451860Y-96038636D01*
X146496860Y-96548084D02*
X146496860Y-96038636D01*
D10*
%TO.C,J1*%
X149095800Y-102271033D02*
X149245800Y-102271033D01*
X148795801Y-105070801D02*
X148795801Y-104327701D01*
X152295799Y-105070804D02*
X152295799Y-104327701D01*
X148945801Y-102071084D02*
X149095800Y-102271033D01*
X148795801Y-102534301D02*
X148795801Y-102071084D01*
X151995800Y-102271033D02*
X152145802Y-102071099D01*
X152295802Y-102534301D02*
X152295802Y-102071084D01*
X148795801Y-102071084D02*
X148945801Y-102071084D01*
X148795801Y-105070801D02*
X152295796Y-105070801D01*
X151845800Y-102271033D02*
X151995800Y-102271033D01*
X152145802Y-102071084D02*
X152295802Y-102071084D01*
D13*
X149870800Y-100920799D02*
G75*
G03*
X149870800Y-100920799I-125001J0D01*
G01*
D12*
%TO.C,U2*%
X152664360Y-97128660D02*
X152664360Y-97803660D01*
X149444360Y-94583660D02*
X149619360Y-94583660D01*
X152664360Y-97803660D02*
X152489360Y-97803660D01*
X149444360Y-95258660D02*
X149444360Y-94583660D01*
X152664360Y-95258660D02*
X152664360Y-94583660D01*
X149444360Y-97803660D02*
X149619360Y-97803660D01*
X149444360Y-97128660D02*
X149444360Y-97803660D01*
%TO.C,R7*%
X148003176Y-91708760D02*
X148512624Y-91708760D01*
X148003176Y-92753760D02*
X148512624Y-92753760D01*
%TO.C,R6*%
X153313676Y-91704900D02*
X153823124Y-91704900D01*
X153313676Y-92749900D02*
X153823124Y-92749900D01*
%TD*%
M02*
