%TF.GenerationSoftware,KiCad,Pcbnew,(6.0.2-0)*%
%TF.CreationDate,2022-03-21T14:05:32-04:00*%
%TF.ProjectId,Woodstock,576f6f64-7374-46f6-936b-2e6b69636164,v03*%
%TF.SameCoordinates,Original*%
%TF.FileFunction,Legend,Bot*%
%TF.FilePolarity,Positive*%
%FSLAX46Y46*%
G04 Gerber Fmt 4.6, Leading zero omitted, Abs format (unit mm)*
G04 Created by KiCad (PCBNEW (6.0.2-0)) date 2022-03-21 14:05:32*
%MOMM*%
%LPD*%
G01*
G04 APERTURE LIST*
%ADD10C,0.150000*%
%ADD11C,0.120000*%
G04 APERTURE END LIST*
D10*
X153071501Y-89662000D02*
G75*
G03*
X153071501Y-89662000I-1865301J0D01*
G01*
X153010296Y-103809800D02*
G75*
G03*
X153010296Y-103809800I-1854896J0D01*
G01*
%TO.C,U1*%
X151815704Y-98385380D02*
X151815704Y-99194904D01*
X151768085Y-99290142D01*
X151720466Y-99337761D01*
X151625228Y-99385380D01*
X151434752Y-99385380D01*
X151339514Y-99337761D01*
X151291895Y-99290142D01*
X151244276Y-99194904D01*
X151244276Y-98385380D01*
X150244276Y-99385380D02*
X150815704Y-99385380D01*
X150529990Y-99385380D02*
X150529990Y-98385380D01*
X150625228Y-98528238D01*
X150720466Y-98623476D01*
X150815704Y-98671095D01*
%TO.C,R3*%
X148705866Y-92730580D02*
X149039200Y-92254390D01*
X149277295Y-92730580D02*
X149277295Y-91730580D01*
X148896342Y-91730580D01*
X148801104Y-91778200D01*
X148753485Y-91825819D01*
X148705866Y-91921057D01*
X148705866Y-92063914D01*
X148753485Y-92159152D01*
X148801104Y-92206771D01*
X148896342Y-92254390D01*
X149277295Y-92254390D01*
X148372533Y-91730580D02*
X147753485Y-91730580D01*
X148086819Y-92111533D01*
X147943961Y-92111533D01*
X147848723Y-92159152D01*
X147801104Y-92206771D01*
X147753485Y-92302009D01*
X147753485Y-92540104D01*
X147801104Y-92635342D01*
X147848723Y-92682961D01*
X147943961Y-92730580D01*
X148229676Y-92730580D01*
X148324914Y-92682961D01*
X148372533Y-92635342D01*
%TO.C,R5*%
X148655626Y-99334580D02*
X148988960Y-98858390D01*
X149227055Y-99334580D02*
X149227055Y-98334580D01*
X148846102Y-98334580D01*
X148750864Y-98382200D01*
X148703245Y-98429819D01*
X148655626Y-98525057D01*
X148655626Y-98667914D01*
X148703245Y-98763152D01*
X148750864Y-98810771D01*
X148846102Y-98858390D01*
X149227055Y-98858390D01*
X147750864Y-98334580D02*
X148227055Y-98334580D01*
X148274674Y-98810771D01*
X148227055Y-98763152D01*
X148131817Y-98715533D01*
X147893721Y-98715533D01*
X147798483Y-98763152D01*
X147750864Y-98810771D01*
X147703245Y-98906009D01*
X147703245Y-99144104D01*
X147750864Y-99239342D01*
X147798483Y-99286961D01*
X147893721Y-99334580D01*
X148131817Y-99334580D01*
X148227055Y-99286961D01*
X148274674Y-99239342D01*
%TO.C,R2*%
X144539540Y-96130493D02*
X144063350Y-95797160D01*
X144539540Y-95559064D02*
X143539540Y-95559064D01*
X143539540Y-95940017D01*
X143587160Y-96035255D01*
X143634779Y-96082874D01*
X143730017Y-96130493D01*
X143872874Y-96130493D01*
X143968112Y-96082874D01*
X144015731Y-96035255D01*
X144063350Y-95940017D01*
X144063350Y-95559064D01*
X143634779Y-96511445D02*
X143587160Y-96559064D01*
X143539540Y-96654302D01*
X143539540Y-96892398D01*
X143587160Y-96987636D01*
X143634779Y-97035255D01*
X143730017Y-97082874D01*
X143825255Y-97082874D01*
X143968112Y-97035255D01*
X144539540Y-96463826D01*
X144539540Y-97082874D01*
%TO.C,R1*%
X158423140Y-96308293D02*
X157946950Y-95974960D01*
X158423140Y-95736864D02*
X157423140Y-95736864D01*
X157423140Y-96117817D01*
X157470760Y-96213055D01*
X157518379Y-96260674D01*
X157613617Y-96308293D01*
X157756474Y-96308293D01*
X157851712Y-96260674D01*
X157899331Y-96213055D01*
X157946950Y-96117817D01*
X157946950Y-95736864D01*
X158423140Y-97260674D02*
X158423140Y-96689245D01*
X158423140Y-96974960D02*
X157423140Y-96974960D01*
X157565998Y-96879721D01*
X157661236Y-96784483D01*
X157708855Y-96689245D01*
%TO.C,R4*%
X153735626Y-99330840D02*
X154068960Y-98854650D01*
X154307055Y-99330840D02*
X154307055Y-98330840D01*
X153926102Y-98330840D01*
X153830864Y-98378460D01*
X153783245Y-98426079D01*
X153735626Y-98521317D01*
X153735626Y-98664174D01*
X153783245Y-98759412D01*
X153830864Y-98807031D01*
X153926102Y-98854650D01*
X154307055Y-98854650D01*
X152878483Y-98664174D02*
X152878483Y-99330840D01*
X153116579Y-98283221D02*
X153354674Y-98997507D01*
X152735626Y-98997507D01*
D11*
%TO.C,U1*%
X151028960Y-94863060D02*
X149528960Y-94863060D01*
X151028960Y-98083060D02*
X152528960Y-98083060D01*
X151028960Y-94863060D02*
X153953960Y-94863060D01*
X151028960Y-98083060D02*
X149528960Y-98083060D01*
%TO.C,R3*%
X151258284Y-91708760D02*
X150748836Y-91708760D01*
X151258284Y-92753760D02*
X150748836Y-92753760D01*
%TO.C,R5*%
X148234236Y-99785960D02*
X148743684Y-99785960D01*
X148234236Y-100830960D02*
X148743684Y-100830960D01*
%TO.C,R2*%
X144994660Y-96042436D02*
X144994660Y-96551884D01*
X146039660Y-96042436D02*
X146039660Y-96551884D01*
%TO.C,R1*%
X156018260Y-96729684D02*
X156018260Y-96220236D01*
X157063260Y-96729684D02*
X157063260Y-96220236D01*
%TO.C,R4*%
X153823684Y-99785960D02*
X153314236Y-99785960D01*
X153823684Y-100830960D02*
X153314236Y-100830960D01*
%TD*%
M02*
